<mxfile host="65bd71144e">
    <diagram id="C-kBC4iiiGsOG91yGyOT" name="Page-1">
        <mxGraphModel dx="592" dy="470" grid="1" gridSize="10" guides="1" tooltips="1" connect="1" arrows="1" fold="1" page="1" pageScale="1" pageWidth="850" pageHeight="1100" background="#FFFFFF" math="0" shadow="0">
            <root>
                <mxCell id="0"/>
                <mxCell id="1" parent="0"/>
                <mxCell id="46" style="edgeStyle=orthogonalEdgeStyle;html=1;exitX=0.5;exitY=1;exitDx=0;exitDy=0;fillColor=none;strokeColor=#000000;fontColor=#000000;" parent="1" source="8" edge="1">
                    <mxGeometry relative="1" as="geometry">
                        <mxPoint x="330" y="395" as="targetPoint"/>
                    </mxGeometry>
                </mxCell>
                <mxCell id="47" style="edgeStyle=orthogonalEdgeStyle;html=1;exitX=0.5;exitY=1;exitDx=0;exitDy=0;fillColor=none;strokeColor=#000000;fontColor=#000000;" parent="1" source="40" edge="1">
                    <mxGeometry relative="1" as="geometry">
                        <mxPoint x="340" y="450" as="targetPoint"/>
                    </mxGeometry>
                </mxCell>
                <mxCell id="2" value="XECS" style="swimlane;childLayout=stackLayout;resizeParent=1;resizeParentMax=0;startSize=20;horizontal=0;horizontalStack=1;container=0;fillColor=none;strokeColor=#000000;fontColor=#000000;" parent="1" vertex="1">
                    <mxGeometry x="40" y="70" width="1030" height="520" as="geometry"/>
                </mxCell>
                <mxCell id="3" value="System" style="swimlane;startSize=20;container=0;fillColor=none;strokeColor=#000000;fontColor=#000000;" parent="1" vertex="1">
                    <mxGeometry x="60" y="70" width="199" height="520" as="geometry"/>
                </mxCell>
                <mxCell id="7" value="User type" style="rhombus;whiteSpace=wrap;html=1;rotation=-90;container=0;fillColor=none;strokeColor=#000000;fontColor=#000000;" parent="3" vertex="1">
                    <mxGeometry x="70" y="210" width="60" height="60" as="geometry"/>
                </mxCell>
                <mxCell id="127" value="Admin" style="text;html=1;align=center;verticalAlign=middle;resizable=0;points=[];autosize=1;strokeColor=#000000;fillColor=none;fontColor=#000000;" parent="3" vertex="1">
                    <mxGeometry x="120" y="210" width="60" height="30" as="geometry"/>
                </mxCell>
                <mxCell id="4" value="Customer" style="swimlane;startSize=20;container=0;fillColor=none;strokeColor=#000000;fontColor=#000000;" parent="1" vertex="1">
                    <mxGeometry x="259" y="70" width="211" height="520" as="geometry"/>
                </mxCell>
                <mxCell id="195" value="" style="ellipse;whiteSpace=wrap;html=1;aspect=fixed;fillColor=none;strokeColor=#000000;fontColor=#000000;" parent="4" vertex="1">
                    <mxGeometry x="171" y="490" width="20" height="20" as="geometry"/>
                </mxCell>
                <mxCell id="219" value="" style="ellipse;whiteSpace=wrap;html=1;aspect=fixed;fillColor=none;strokeColor=#000000;fontColor=#000000;" parent="4" vertex="1">
                    <mxGeometry x="161" y="40" width="20" height="20" as="geometry"/>
                </mxCell>
                <mxCell id="221" style="edgeStyle=orthogonalEdgeStyle;html=1;exitX=1;exitY=0.5;exitDx=0;exitDy=0;entryX=0;entryY=0.5;entryDx=0;entryDy=0;fillColor=none;strokeColor=#000000;fontColor=#000000;" parent="4" source="29" target="219" edge="1">
                    <mxGeometry relative="1" as="geometry"/>
                </mxCell>
                <mxCell id="29" value="Log out" style="rounded=0;whiteSpace=wrap;html=1;rotation=-90;container=0;fillColor=none;strokeColor=#000000;fontColor=#000000;" parent="4" vertex="1">
                    <mxGeometry x="91" y="130" width="80" height="35" as="geometry"/>
                </mxCell>
                <mxCell id="12" value="View Wishlist" style="rounded=0;whiteSpace=wrap;html=1;rotation=-90;container=0;fillColor=none;strokeColor=#000000;fontColor=#000000;" parent="4" vertex="1">
                    <mxGeometry x="131" y="410" width="80" height="30" as="geometry"/>
                </mxCell>
                <mxCell id="196" style="edgeStyle=orthogonalEdgeStyle;html=1;exitX=0.5;exitY=1;exitDx=0;exitDy=0;entryX=1;entryY=0;entryDx=0;entryDy=0;fillColor=none;strokeColor=#000000;fontColor=#000000;" parent="4" source="12" target="195" edge="1">
                    <mxGeometry relative="1" as="geometry"/>
                </mxCell>
                <mxCell id="5" value="Admin" style="swimlane;startSize=20;container=0;fillColor=none;strokeColor=#000000;fontColor=#000000;" parent="1" vertex="1">
                    <mxGeometry x="470" y="70" width="210" height="520" as="geometry"/>
                </mxCell>
                <mxCell id="94" style="edgeStyle=orthogonalEdgeStyle;html=1;exitX=0;exitY=0.5;exitDx=0;exitDy=0;entryX=0.5;entryY=0;entryDx=0;entryDy=0;fillColor=none;strokeColor=#000000;fontColor=#000000;" parent="5" source="17" target="88" edge="1">
                    <mxGeometry relative="1" as="geometry"/>
                </mxCell>
                <mxCell id="17" value="Product Management" style="rounded=0;whiteSpace=wrap;html=1;rotation=-90;container=0;fillColor=none;strokeColor=#000000;fontColor=#000000;" parent="5" vertex="1">
                    <mxGeometry x="52" y="225" width="80" height="30" as="geometry"/>
                </mxCell>
                <mxCell id="201" style="edgeStyle=orthogonalEdgeStyle;html=1;exitX=0;exitY=0.5;exitDx=0;exitDy=0;entryX=0;entryY=0.5;entryDx=0;entryDy=0;fillColor=none;strokeColor=#000000;fontColor=#000000;" parent="5" source="18" target="200" edge="1">
                    <mxGeometry relative="1" as="geometry"/>
                </mxCell>
                <mxCell id="18" value="View Product" style="rounded=0;whiteSpace=wrap;html=1;rotation=-90;container=0;fillColor=none;strokeColor=#000000;fontColor=#000000;" parent="5" vertex="1">
                    <mxGeometry x="-8" y="410" width="80" height="30" as="geometry"/>
                </mxCell>
                <mxCell id="202" style="edgeStyle=orthogonalEdgeStyle;html=1;exitX=0;exitY=0.5;exitDx=0;exitDy=0;entryX=0;entryY=0;entryDx=0;entryDy=0;fillColor=none;strokeColor=#000000;fontColor=#000000;" parent="5" source="21" target="200" edge="1">
                    <mxGeometry relative="1" as="geometry"/>
                </mxCell>
                <mxCell id="21" value="Add Product" style="rounded=0;whiteSpace=wrap;html=1;rotation=-90;container=0;fillColor=none;strokeColor=#000000;fontColor=#000000;" parent="5" vertex="1">
                    <mxGeometry x="30" y="410" width="80" height="30" as="geometry"/>
                </mxCell>
                <mxCell id="203" style="edgeStyle=orthogonalEdgeStyle;html=1;exitX=0;exitY=0.5;exitDx=0;exitDy=0;entryX=1;entryY=0;entryDx=0;entryDy=0;fillColor=none;strokeColor=#000000;fontColor=#000000;" parent="5" source="20" target="200" edge="1">
                    <mxGeometry relative="1" as="geometry"/>
                </mxCell>
                <mxCell id="20" value="Edit Product" style="rounded=0;whiteSpace=wrap;html=1;container=0;rotation=-90;fillColor=none;strokeColor=#000000;fontColor=#000000;" parent="5" vertex="1">
                    <mxGeometry x="66" y="410" width="80" height="30" as="geometry"/>
                </mxCell>
                <mxCell id="204" style="edgeStyle=orthogonalEdgeStyle;html=1;exitX=0;exitY=0.5;exitDx=0;exitDy=0;entryX=0.5;entryY=0;entryDx=0;entryDy=0;fillColor=none;strokeColor=#000000;fontColor=#000000;" parent="5" source="19" target="200" edge="1">
                    <mxGeometry relative="1" as="geometry"/>
                </mxCell>
                <mxCell id="19" value="Delete Product" style="rounded=0;whiteSpace=wrap;html=1;container=0;rotation=-90;fillColor=none;strokeColor=#000000;fontColor=#000000;" parent="5" vertex="1">
                    <mxGeometry x="110" y="410" width="80" height="30" as="geometry"/>
                </mxCell>
                <mxCell id="207" style="edgeStyle=orthogonalEdgeStyle;html=1;exitX=0;exitY=0.5;exitDx=0;exitDy=0;entryX=0;entryY=0;entryDx=0;entryDy=0;fillColor=none;strokeColor=#000000;fontColor=#000000;" parent="5" source="22" target="206" edge="1">
                    <mxGeometry relative="1" as="geometry"/>
                </mxCell>
                <mxCell id="22" value="Manage Info" style="rounded=0;whiteSpace=wrap;html=1;container=0;rotation=-91;fillColor=none;strokeColor=#000000;fontColor=#000000;" parent="5" vertex="1">
                    <mxGeometry x="92" y="225" width="80" height="30" as="geometry"/>
                </mxCell>
                <mxCell id="225" style="edgeStyle=orthogonalEdgeStyle;html=1;exitX=1;exitY=0.75;exitDx=0;exitDy=0;entryX=0.5;entryY=1;entryDx=0;entryDy=0;fillColor=none;strokeColor=#000000;fontColor=#000000;" parent="5" source="28" target="222" edge="1">
                    <mxGeometry relative="1" as="geometry"/>
                </mxCell>
                <mxCell id="28" value="Log out" style="rounded=0;whiteSpace=wrap;html=1;container=0;rotation=-90;fillColor=none;strokeColor=#000000;fontColor=#000000;" parent="5" vertex="1">
                    <mxGeometry x="132" y="225" width="80" height="30" as="geometry"/>
                </mxCell>
                <mxCell id="90" style="edgeStyle=orthogonalEdgeStyle;html=1;exitX=0.5;exitY=1;exitDx=0;exitDy=0;entryX=1;entryY=0.5;entryDx=0;entryDy=0;fillColor=none;strokeColor=#000000;fontColor=#000000;" parent="5" source="39" target="17" edge="1">
                    <mxGeometry relative="1" as="geometry"/>
                </mxCell>
                <mxCell id="92" style="edgeStyle=orthogonalEdgeStyle;html=1;exitX=1;exitY=0.5;exitDx=0;exitDy=0;entryX=1;entryY=0.25;entryDx=0;entryDy=0;fillColor=none;strokeColor=#000000;fontColor=#000000;" parent="5" source="39" target="28" edge="1">
                    <mxGeometry relative="1" as="geometry"/>
                </mxCell>
                <mxCell id="39" value="" style="rhombus;whiteSpace=wrap;html=1;container=0;fillColor=none;strokeColor=#000000;fontColor=#000000;" parent="5" vertex="1">
                    <mxGeometry x="110" y="160" width="20" height="20" as="geometry"/>
                </mxCell>
                <mxCell id="121" style="edgeStyle=orthogonalEdgeStyle;html=1;exitX=1;exitY=0.5;exitDx=0;exitDy=0;entryX=1;entryY=0.5;entryDx=0;entryDy=0;fillColor=none;strokeColor=#000000;fontColor=#000000;" parent="5" source="88" target="19" edge="1">
                    <mxGeometry relative="1" as="geometry"/>
                </mxCell>
                <mxCell id="88" value="" style="rhombus;whiteSpace=wrap;html=1;container=0;fillColor=none;strokeColor=#000000;fontColor=#000000;" parent="5" vertex="1">
                    <mxGeometry x="90" y="290" width="20" height="20" as="geometry"/>
                </mxCell>
                <mxCell id="6" value="Customer Support" style="swimlane;startSize=20;container=0;fillColor=none;strokeColor=#000000;fontColor=#000000;" parent="5" vertex="1">
                    <mxGeometry x="212" width="178" height="520" as="geometry"/>
                </mxCell>
                <mxCell id="10" value="Database" style="swimlane;startSize=20;container=0;fillColor=none;strokeColor=#000000;fontColor=#000000;" parent="6" vertex="1">
                    <mxGeometry x="180" width="218" height="520" as="geometry"/>
                </mxCell>
                <mxCell id="230" style="edgeStyle=orthogonalEdgeStyle;html=1;exitX=1;exitY=0.5;exitDx=0;exitDy=0;entryX=0.5;entryY=0;entryDx=0;entryDy=0;fillColor=none;strokeColor=#000000;fontColor=#000000;" parent="10" source="227" target="31" edge="1">
                    <mxGeometry relative="1" as="geometry"/>
                </mxCell>
                <mxCell id="227" value="" style="ellipse;whiteSpace=wrap;html=1;aspect=fixed;fillColor=none;strokeColor=#000000;fontColor=#000000;" parent="10" vertex="1">
                    <mxGeometry x="90" y="170" width="20" height="20" as="geometry"/>
                </mxCell>
                <mxCell id="31" value="End" style="ellipse;whiteSpace=wrap;html=1;rotation=-92;container=0;fillColor=none;strokeColor=#000000;fontColor=#000000;" parent="10" vertex="1">
                    <mxGeometry x="110" y="170" width="60" height="30" as="geometry"/>
                </mxCell>
                <mxCell id="153" style="edgeStyle=orthogonalEdgeStyle;html=1;exitX=0;exitY=0.5;exitDx=0;exitDy=0;entryX=0.5;entryY=0;entryDx=0;entryDy=0;fillColor=none;strokeColor=#000000;fontColor=#000000;" parent="6" source="132" target="87" edge="1">
                    <mxGeometry relative="1" as="geometry"/>
                </mxCell>
                <mxCell id="132" value="Customer Support Dashboard" style="rounded=0;whiteSpace=wrap;html=1;rotation=-90;container=0;fillColor=none;strokeColor=#000000;fontColor=#000000;" parent="6" vertex="1">
                    <mxGeometry y="100" width="80" height="45" as="geometry"/>
                </mxCell>
                <mxCell id="27" value="Log out" style="rounded=0;whiteSpace=wrap;html=1;container=0;rotation=-89;fillColor=none;strokeColor=#000000;fontColor=#000000;" parent="6" vertex="1">
                    <mxGeometry x="98" y="270" width="80" height="35" as="geometry"/>
                </mxCell>
                <mxCell id="212" style="edgeStyle=orthogonalEdgeStyle;html=1;exitX=0;exitY=0.5;exitDx=0;exitDy=0;entryX=0.5;entryY=0;entryDx=0;entryDy=0;fillColor=none;strokeColor=#000000;fontColor=#000000;" parent="6" source="24" target="211" edge="1">
                    <mxGeometry relative="1" as="geometry"/>
                </mxCell>
                <mxCell id="24" value="View Queries and reply" style="rounded=0;whiteSpace=wrap;html=1;container=0;rotation=-90;fillColor=none;strokeColor=#000000;fontColor=#000000;" parent="6" vertex="1">
                    <mxGeometry y="270" width="80" height="35" as="geometry"/>
                </mxCell>
                <mxCell id="26" value="view Feedback and reply" style="rounded=0;whiteSpace=wrap;html=1;container=0;rotation=-90;fillColor=none;strokeColor=#000000;fontColor=#000000;" parent="6" vertex="1">
                    <mxGeometry x="49" y="270" width="80" height="35" as="geometry"/>
                </mxCell>
                <mxCell id="193" style="edgeStyle=orthogonalEdgeStyle;html=1;exitX=0.5;exitY=1;exitDx=0;exitDy=0;entryX=1;entryY=0.25;entryDx=0;entryDy=0;fillColor=none;strokeColor=#000000;fontColor=#000000;" parent="6" source="87" target="26" edge="1">
                    <mxGeometry relative="1" as="geometry"/>
                </mxCell>
                <mxCell id="194" style="edgeStyle=orthogonalEdgeStyle;html=1;exitX=1;exitY=0;exitDx=0;exitDy=0;entryX=1;entryY=0.5;entryDx=0;entryDy=0;fillColor=none;strokeColor=#000000;fontColor=#000000;" parent="6" source="87" target="27" edge="1">
                    <mxGeometry relative="1" as="geometry"/>
                </mxCell>
                <mxCell id="87" value="" style="rhombus;whiteSpace=wrap;html=1;container=0;fillColor=none;strokeColor=#000000;fontColor=#000000;" parent="6" vertex="1">
                    <mxGeometry x="70" y="190" width="20" height="20" as="geometry"/>
                </mxCell>
                <mxCell id="211" value="" style="ellipse;whiteSpace=wrap;html=1;aspect=fixed;fillColor=none;strokeColor=#000000;fontColor=#000000;" parent="6" vertex="1">
                    <mxGeometry x="70" y="490" width="20" height="20" as="geometry"/>
                </mxCell>
                <mxCell id="228" style="edgeStyle=orthogonalEdgeStyle;html=1;exitX=1;exitY=0.5;exitDx=0;exitDy=0;entryX=0.5;entryY=0;entryDx=0;entryDy=0;fillColor=none;strokeColor=#000000;fontColor=#000000;" parent="6" source="223" target="227" edge="1">
                    <mxGeometry relative="1" as="geometry"/>
                </mxCell>
                <mxCell id="223" value="" style="ellipse;whiteSpace=wrap;html=1;aspect=fixed;fillColor=none;strokeColor=#000000;fontColor=#000000;" parent="6" vertex="1">
                    <mxGeometry x="129" y="40" width="20" height="20" as="geometry"/>
                </mxCell>
                <mxCell id="156" style="edgeStyle=orthogonalEdgeStyle;html=1;exitX=0;exitY=0.5;exitDx=0;exitDy=0;entryX=1;entryY=0;entryDx=0;entryDy=0;fillColor=none;strokeColor=#000000;fontColor=#000000;" parent="6" source="87" target="24" edge="1">
                    <mxGeometry relative="1" as="geometry">
                        <mxPoint x="8" y="250" as="targetPoint"/>
                    </mxGeometry>
                </mxCell>
                <mxCell id="215" style="edgeStyle=orthogonalEdgeStyle;html=1;exitX=1;exitY=0.5;exitDx=0;exitDy=0;entryX=0;entryY=0.5;entryDx=0;entryDy=0;fillColor=none;strokeColor=#000000;fontColor=#000000;" parent="5" source="200" target="211" edge="1">
                    <mxGeometry relative="1" as="geometry"/>
                </mxCell>
                <mxCell id="200" value="" style="ellipse;whiteSpace=wrap;html=1;aspect=fixed;fillColor=none;strokeColor=#000000;fontColor=#000000;" parent="5" vertex="1">
                    <mxGeometry x="182" y="490" width="20" height="20" as="geometry"/>
                </mxCell>
                <mxCell id="209" style="edgeStyle=orthogonalEdgeStyle;html=1;exitX=0.5;exitY=1;exitDx=0;exitDy=0;entryX=0.5;entryY=0;entryDx=0;entryDy=0;fillColor=none;strokeColor=#000000;fontColor=#000000;" parent="5" source="206" target="200" edge="1">
                    <mxGeometry relative="1" as="geometry"/>
                </mxCell>
                <mxCell id="206" value="" style="ellipse;whiteSpace=wrap;html=1;aspect=fixed;fillColor=none;strokeColor=#000000;fontColor=#000000;" parent="5" vertex="1">
                    <mxGeometry x="170" y="310" width="20" height="20" as="geometry"/>
                </mxCell>
                <mxCell id="226" style="edgeStyle=orthogonalEdgeStyle;html=1;exitX=1;exitY=0.5;exitDx=0;exitDy=0;entryX=0;entryY=0.5;entryDx=0;entryDy=0;fillColor=none;strokeColor=#000000;fontColor=#000000;" parent="5" source="222" target="223" edge="1">
                    <mxGeometry relative="1" as="geometry"/>
                </mxCell>
                <mxCell id="222" value="" style="ellipse;whiteSpace=wrap;html=1;aspect=fixed;fillColor=none;strokeColor=#000000;fontColor=#000000;" parent="5" vertex="1">
                    <mxGeometry x="152" y="40" width="20" height="20" as="geometry"/>
                </mxCell>
                <mxCell id="125" style="edgeStyle=orthogonalEdgeStyle;html=1;exitX=0.5;exitY=1;exitDx=0;exitDy=0;fillColor=none;strokeColor=#000000;fontColor=#000000;" parent="1" source="30" target="7" edge="1">
                    <mxGeometry relative="1" as="geometry"/>
                </mxCell>
                <mxCell id="30" value="Start" style="ellipse;whiteSpace=wrap;html=1;rotation=-90;container=0;fillColor=none;strokeColor=#000000;fontColor=#000000;" parent="1" vertex="1">
                    <mxGeometry x="50" y="330" width="80" height="40" as="geometry"/>
                </mxCell>
                <mxCell id="122" style="edgeStyle=orthogonalEdgeStyle;html=1;exitX=0;exitY=0.5;exitDx=0;exitDy=0;entryX=0.25;entryY=0;entryDx=0;entryDy=0;fillColor=none;strokeColor=#000000;fontColor=#000000;" parent="1" source="7" target="8" edge="1">
                    <mxGeometry relative="1" as="geometry"/>
                </mxCell>
                <mxCell id="8" value="Customer Dashboard" style="rounded=0;whiteSpace=wrap;html=1;rotation=-90;container=0;fillColor=none;strokeColor=#000000;fontColor=#000000;" parent="1" vertex="1">
                    <mxGeometry x="259" y="380" width="80" height="30" as="geometry"/>
                </mxCell>
                <mxCell id="197" style="edgeStyle=orthogonalEdgeStyle;html=1;exitX=0;exitY=0.5;exitDx=0;exitDy=0;entryX=0;entryY=0.5;entryDx=0;entryDy=0;fillColor=none;strokeColor=#000000;fontColor=#000000;" parent="1" source="11" target="195" edge="1">
                    <mxGeometry relative="1" as="geometry"/>
                </mxCell>
                <mxCell id="11" value="Manage Info" style="rounded=0;whiteSpace=wrap;html=1;rotation=-90;container=0;fillColor=none;strokeColor=#000000;fontColor=#000000;" parent="1" vertex="1">
                    <mxGeometry x="300" y="480" width="80" height="30" as="geometry"/>
                </mxCell>
                <mxCell id="198" style="edgeStyle=orthogonalEdgeStyle;html=1;exitX=0;exitY=0.5;exitDx=0;exitDy=0;entryX=0;entryY=0.5;entryDx=0;entryDy=0;fillColor=none;strokeColor=#000000;fontColor=#000000;" parent="1" source="13" target="195" edge="1">
                    <mxGeometry relative="1" as="geometry"/>
                </mxCell>
                <mxCell id="13" value="View Order" style="rounded=0;whiteSpace=wrap;html=1;rotation=-90;container=0;fillColor=none;strokeColor=#000000;fontColor=#000000;" parent="1" vertex="1">
                    <mxGeometry x="345" y="480" width="80" height="30" as="geometry"/>
                </mxCell>
                <mxCell id="48" style="edgeStyle=orthogonalEdgeStyle;html=1;exitX=1;exitY=0.5;exitDx=0;exitDy=0;entryX=1;entryY=0.25;entryDx=0;entryDy=0;fillColor=none;strokeColor=#000000;fontColor=#000000;" parent="1" source="40" target="13" edge="1">
                    <mxGeometry relative="1" as="geometry"/>
                </mxCell>
                <mxCell id="49" style="edgeStyle=orthogonalEdgeStyle;html=1;exitX=1;exitY=0.5;exitDx=0;exitDy=0;entryX=1;entryY=0;entryDx=0;entryDy=0;fillColor=none;strokeColor=#000000;fontColor=#000000;" parent="1" source="40" target="29" edge="1">
                    <mxGeometry relative="1" as="geometry"/>
                </mxCell>
                <mxCell id="220" style="edgeStyle=orthogonalEdgeStyle;html=1;exitX=1;exitY=0.5;exitDx=0;exitDy=0;entryX=1;entryY=0.5;entryDx=0;entryDy=0;fillColor=none;strokeColor=#000000;fontColor=#000000;" parent="1" source="40" target="12" edge="1">
                    <mxGeometry relative="1" as="geometry"/>
                </mxCell>
                <mxCell id="40" value="" style="rhombus;whiteSpace=wrap;html=1;container=0;fillColor=none;strokeColor=#000000;fontColor=#000000;" parent="1" vertex="1">
                    <mxGeometry x="330" y="385" width="20" height="20" as="geometry"/>
                </mxCell>
                <mxCell id="89" style="edgeStyle=orthogonalEdgeStyle;html=1;exitX=1;exitY=1;exitDx=0;exitDy=0;entryX=0;entryY=0.5;entryDx=0;entryDy=0;fillColor=none;strokeColor=#000000;fontColor=#000000;" parent="1" source="9" target="39" edge="1">
                    <mxGeometry relative="1" as="geometry"/>
                </mxCell>
                <mxCell id="9" value="Admin Dashboard" style="rounded=0;whiteSpace=wrap;html=1;rotation=-90;container=0;fillColor=none;strokeColor=#000000;fontColor=#000000;" parent="1" vertex="1">
                    <mxGeometry x="458" y="250" width="80" height="30" as="geometry"/>
                </mxCell>
                <mxCell id="91" style="edgeStyle=orthogonalEdgeStyle;html=1;exitX=0.5;exitY=1;exitDx=0;exitDy=0;fillColor=none;strokeColor=#000000;fontColor=#000000;" parent="1" source="39" edge="1">
                    <mxGeometry relative="1" as="geometry">
                        <mxPoint x="580" y="270" as="targetPoint"/>
                    </mxGeometry>
                </mxCell>
                <mxCell id="118" style="edgeStyle=orthogonalEdgeStyle;html=1;exitX=0;exitY=0.5;exitDx=0;exitDy=0;fillColor=none;strokeColor=#000000;fontColor=#000000;" parent="1" source="88" edge="1">
                    <mxGeometry relative="1" as="geometry">
                        <mxPoint x="490" y="450" as="targetPoint"/>
                    </mxGeometry>
                </mxCell>
                <mxCell id="119" style="edgeStyle=orthogonalEdgeStyle;html=1;exitX=0.5;exitY=1;exitDx=0;exitDy=0;fillColor=none;strokeColor=#000000;fontColor=#000000;" parent="1" source="88" edge="1">
                    <mxGeometry relative="1" as="geometry">
                        <mxPoint x="530" y="450" as="targetPoint"/>
                    </mxGeometry>
                </mxCell>
                <mxCell id="120" style="edgeStyle=orthogonalEdgeStyle;html=1;exitX=0.5;exitY=1;exitDx=0;exitDy=0;fillColor=none;strokeColor=#000000;fontColor=#000000;" parent="1" source="88" edge="1">
                    <mxGeometry relative="1" as="geometry">
                        <mxPoint x="558" y="450" as="targetPoint"/>
                    </mxGeometry>
                </mxCell>
                <mxCell id="123" value="Customer" style="text;html=1;align=center;verticalAlign=middle;resizable=0;points=[];autosize=1;strokeColor=#000000;fillColor=none;fontColor=#000000;" parent="1" vertex="1">
                    <mxGeometry x="150" y="415" width="80" height="30" as="geometry"/>
                </mxCell>
                <mxCell id="126" style="edgeStyle=orthogonalEdgeStyle;html=1;exitX=0.5;exitY=1;exitDx=0;exitDy=0;fillColor=none;strokeColor=#000000;fontColor=#000000;" parent="1" source="7" target="9" edge="1">
                    <mxGeometry relative="1" as="geometry"/>
                </mxCell>
                <mxCell id="133" style="edgeStyle=orthogonalEdgeStyle;html=1;exitX=1;exitY=0.5;exitDx=0;exitDy=0;entryX=1;entryY=0;entryDx=0;entryDy=0;fillColor=none;strokeColor=#000000;fontColor=#000000;" parent="1" source="7" target="132" edge="1">
                    <mxGeometry relative="1" as="geometry"/>
                </mxCell>
                <mxCell id="210" style="edgeStyle=orthogonalEdgeStyle;html=1;exitX=1;exitY=0.5;exitDx=0;exitDy=0;entryX=0;entryY=0.5;entryDx=0;entryDy=0;fillColor=none;strokeColor=#000000;fontColor=#000000;" parent="1" source="195" target="200" edge="1">
                    <mxGeometry relative="1" as="geometry"/>
                </mxCell>
                <mxCell id="213" style="edgeStyle=orthogonalEdgeStyle;html=1;exitX=0;exitY=0.75;exitDx=0;exitDy=0;fillColor=none;strokeColor=#000000;fontColor=#000000;" parent="1" source="26" edge="1">
                    <mxGeometry relative="1" as="geometry">
                        <mxPoint x="750" y="560" as="targetPoint"/>
                    </mxGeometry>
                </mxCell>
                <mxCell id="216" style="edgeStyle=orthogonalEdgeStyle;html=1;exitX=1;exitY=0.5;exitDx=0;exitDy=0;startArrow=none;fillColor=none;strokeColor=#000000;fontColor=#000000;" parent="1" source="217" edge="1">
                    <mxGeometry relative="1" as="geometry">
                        <mxPoint x="910" y="420" as="targetPoint"/>
                    </mxGeometry>
                </mxCell>
                <mxCell id="229" style="edgeStyle=orthogonalEdgeStyle;html=1;exitX=1;exitY=0.5;exitDx=0;exitDy=0;entryX=0;entryY=0.5;entryDx=0;entryDy=0;fillColor=none;strokeColor=#000000;fontColor=#000000;" parent="1" source="217" target="227" edge="1">
                    <mxGeometry relative="1" as="geometry"/>
                </mxCell>
                <mxCell id="217" value="Store In Database" style="rounded=0;whiteSpace=wrap;html=1;rotation=-90;fillColor=none;strokeColor=#000000;fontColor=#000000;" parent="1" vertex="1">
                    <mxGeometry x="860" y="430" width="90" height="35" as="geometry"/>
                </mxCell>
                <mxCell id="218" value="" style="edgeStyle=orthogonalEdgeStyle;html=1;exitX=1;exitY=0.5;exitDx=0;exitDy=0;endArrow=none;fillColor=none;strokeColor=#000000;fontColor=#000000;" parent="1" source="211" target="217" edge="1">
                    <mxGeometry relative="1" as="geometry">
                        <mxPoint x="910" y="420" as="targetPoint"/>
                        <mxPoint x="760" y="570" as="sourcePoint"/>
                    </mxGeometry>
                </mxCell>
                <mxCell id="224" style="edgeStyle=orthogonalEdgeStyle;html=1;exitX=1;exitY=0.5;exitDx=0;exitDy=0;entryX=0;entryY=0.5;entryDx=0;entryDy=0;fillColor=none;strokeColor=#000000;fontColor=#000000;" parent="1" source="219" target="222" edge="1">
                    <mxGeometry relative="1" as="geometry"/>
                </mxCell>
            </root>
        </mxGraphModel>
    </diagram>
</mxfile>